<svg xmlns="http://www.w3.org/2000/svg" viewBox="0 0 19 19"><defs><style>.cls-1{fill:none;stroke:#575656;stroke-miterlimit:10;}.cls-2{fill:#84b33e;}</style></defs><title>Ресурс 2</title><g id="Слой_2" data-name="Слой 2"><g id="Body"><rect class="cls-1" x="0.5" y="0.5" width="18" height="18" rx="0.9" ry="0.9"/><path class="cls-2" d="M14.29,6.32,13.82,7l-.44.65-.4.59a.6.6,0,0,0-.09.14c-.08.1-.15.22-.22.33a2.21,2.21,0,0,0-.14.21l0,0L11,11.15,9.6,13.27l-.88,1.3-.57.83-.78,1.13s0,0,0,0L5.91,15.47l-1.38-1L3,13.26s0,0,0-.06l.4-.55,1-1.39s0,0,.05,0l.37.28,2.13,1.61s0,0,.05,0l.25-.37L9.08,10l1.46-2.15.23-.35a.44.44,0,0,0,.07-.09c.06-.09.12-.18.18-.27A.53.53,0,0,0,11.1,7l.67-1,.54-.8.44-.64.44-.65.4-.59L14,2.7l.16-.24s0,0,0,0l.46.31.61.41.66.45.06,0s0,0,0,.08l-.54.81"/></g></g></svg>