<svg xmlns="http://www.w3.org/2000/svg" viewBox="0 0 45 45"><defs><style>.cls-1{fill:#4f629a;}</style></defs><title>Ресурс 3</title><g id="Слой_2" data-name="Слой 2"><g id="Our_Network" data-name="Our Network"><path id="Facebook" class="cls-1" d="M45,42.52A2.48,2.48,0,0,1,42.52,45H31V27.57H36.9l.88-6.79H31V16.45c0-2,.55-3.31,3.37-3.31H38V7.06a48.06,48.06,0,0,0-5.24-.27C27.59,6.8,24,10,24,15.77v5H18.17v6.79H24V45H2.48A2.48,2.48,0,0,1,0,42.52v-40A2.48,2.48,0,0,1,2.48,0h40A2.48,2.48,0,0,1,45,2.48Z"/></g></g></svg>