<svg xmlns="http://www.w3.org/2000/svg" viewBox="0 0 37.08 23.6"><defs><style>.cls-1{fill:#fff;}</style></defs><title>Ресурс 13</title><g id="Слой_2" data-name="Слой 2"><g id="Footer"><path class="cls-1" d="M11.78,9.46v4.67h6.37c-1,3-2.55,4.68-6.37,4.68a6.9,6.9,0,0,1-6.88-7,6.9,6.9,0,0,1,6.88-7,6.67,6.67,0,0,1,4.57,1.72c1-1,.89-1.11,3.35-3.44A11.79,11.79,0,1,0,11.78,23.6c9.72,0,12.1-8.48,11.31-14.14Z"/><polygon class="cls-1" points="33 9.7 33 5.61 30.09 5.61 30.09 9.7 25.89 9.7 25.89 12.62 30.09 12.62 30.09 16.82 33 16.82 33 12.62 37.08 12.62 37.08 9.7 33 9.7"/></g></g></svg>