<svg xmlns="http://www.w3.org/2000/svg" viewBox="0 0 289.46 289.48"><defs><style>.cls-1{fill:#9f9fa4;}.cls-2{fill:#ca464f;}</style></defs><title>Ресурс 4</title><g id="Слой_2" data-name="Слой 2"><g id="Our_Network" data-name="Our Network"><path class="cls-1" d="M230.92,229a.25.25,0,0,0-.11-.27,10.32,10.32,0,0,0-3-4.22h0a9.1,9.1,0,0,0-1.78-2.31l0,0-.29-.37h0c-.19-.34-.36-.7-.58-1-2.74-4.08-5.11-8.32-5.18-13.4-.05-3.83.15-7.66.17-11.49,0-5,0-10.08,0-15.12v-1c.44-9.55.38-19.1.34-28.65a.33.33,0,0,0,0-.33,3.7,3.7,0,0,0,.29-.6c1.56-5.62,5.47-8.11,11.09-7.07,4.42,1.43,5.7,4.82,5.86,9.07.26,6.89.67,13.77,1,20.66,0,.43-.12.94.56,1.33a52.49,52.49,0,0,0,3.18-6c1.48-3.89,3.69-7.37,5.61-11a6.85,6.85,0,0,0,.5-6.32c-2.3-5.37-4.78-10.65-6.75-16.16-1.21-3.39-3.1-6.54-4.27-9.94-2.35-6.84-5.76-13.23-8.13-20.06a79.08,79.08,0,0,0-3.94-9c-1.17-2.37-.89-4.8-.82-7.26v0c.23-.05.36-.17.29-.43,1.44-1.69,2.64-3.66,4.91-4.43l.6-.12,2.07,0,1.21.14,1.15.42a9.26,9.26,0,0,1,2.25,3.36c1,2.25,2.4,4.3,3.57,6.47,3.41,6.35,6.61,12.82,10.21,19.06,3.15,5.47,5.89,11.15,9,16.63,2.4,4.23,4.79,8.48,7,12.84,1.83,3.69,4,7.18,5.89,10.83.89,1.72,1.73,3.47,2.58,5.21,1.3,2.64.92,5.32-.37,8-4.19,8.55-8.61,17-12.77,25.55-2.43,5-5.34,9.76-7.42,14.93a6.91,6.91,0,0,0,1.34,7.83c3.23,3.4,6.26,7,9.35,10.5,2.79,3.17,5.91,6.06,8.36,9.55,1.24,1.76,3,3.15,4.45,4.78,3.58,4,7.09,8.08,10.69,12.07.73.81.38,1.08-.29,1.52q-3.74,2.46-7.44,5c-6.11,4.15-12.22,8.29-18.3,12.48-.93.64-1.28.77-2-.39-1.28-2.09-3-3.93-4.41-5.93-3.11-4.31-6-8.77-9.3-12.94s-5.92-8.85-9.47-12.83l-1.1-1.68,0,0a.3.3,0,0,0-.3-.35h0a13.39,13.39,0,0,0-2.44-3.36l0-.06-.28-.37-.25-.37a1.5,1.5,0,0,0-.78-1l-.33-.32Z"/><path class="cls-1" d="M95.6,63.66c-4,1.83-7.87,1.42-10.31-1.22-1.64-1.78-2.8-3.76-2.1-6.38a4.38,4.38,0,0,1,2.38-3.13c2.71-1.35,5.32-2.91,8-4.35,5.91-3.17,11.84-6.29,17.73-9.49,5.69-3.09,11.28-6.39,17-9.34,4-2.07,7.89-4.47,11.95-6.46,6-2.92,11.61-6.4,17.54-9.35a8.37,8.37,0,0,1,7.64.08c5.35,2.53,10.51,5.43,15.87,7.91,5.68,2.63,11,5.91,16.78,8.36,2.42,1,4.71,2.36,7,3.6,3.6,1.94,6.67,1.59,9.64-1.08,4.68-4.21,9.44-8.32,14.08-12.55,3.24-3,6.6-5.79,9.79-8.82,3.93-3.73,8.27-7,12.13-10.87,1.23-1.22,1.78-.29,2.37.58,1.41,2.09,2.78,4.21,4.2,6.29,2.87,4.21,5.77,8.39,8.63,12.6,1.51,2.23,2.94,4.51,4.46,6.73.5.73.22,1.14-.37,1.55-5.25,3.67-10.36,7.56-15.61,11.22-3.8,2.65-7.46,5.49-11.29,8.09-2.25,1.53-4.35,3.39-6.59,4.92-2.84,1.94-5.39,4.3-8.35,6-2.75,1.6-5,3.9-7.64,5.55-1.07.66-2.1,1.38-3.15,2.07a12.23,12.23,0,0,0-2.82,1.62l-1.31.51a.54.54,0,0,0-.71.19l-.72.17c-3.18.73-6.42.43-9.63.65l-25.18-.15c-2.75-.56-5.52-.23-8.29-.22l-11.05-.08H155l-2.77,0a27,27,0,0,1-5.47-1.37h0c-2.6-2.27-4.4-4.93-4.23-8.57l.11-.68c.44-.36.31-.88.35-1.35a1,1,0,0,0,.38-.93c.21-.18.51-.31.63-.54,1.39-2.67,4-3.36,6.57-3.65,3.27-.36,6.59-.31,9.89-.45.5,0,1,.13,1.46-.29l3.44-.13a4.51,4.51,0,0,0,2.77-.22l.69,0,1,0,1.73,0a6.56,6.56,0,0,0,3.11-.32l-3-1.49c-5.71-2.49-11-5.83-16.73-8.31a3.9,3.9,0,0,0-3.13-.07c-4.73,1.75-9.27,4-13.93,5.88-2.37,1-4.82,1.78-7.19,2.78-7.17,3-14.42,5.89-21.57,9-3.09,1.34-6.44,2.09-9.28,4a1.72,1.72,0,0,0-1.43.62.43.43,0,0,0-.28.06C97.23,63,96.17,62.69,95.6,63.66Z"/><path class="cls-1" d="M68.79,136.89q0,4.83-.05,9.67c-.55,5.13-3.35,8.32-8.3,9.68H58.69a8.4,8.4,0,0,0-.91-.42c-3.6-1.19-5.71-3.53-6.14-7.42-.26-2.33,0-4.7-.55-7L51,138.63a8.54,8.54,0,0,0-.25-3.8l-.11-2.41c.31-2.79-.34-5.52-.29-8.69-2.93,4.51-4.65,9.13-6.81,13.52l-.33.69a20.41,20.41,0,0,0-3,5.54,4.48,4.48,0,0,0-.13,3c.69,2.76,2.22,5.13,3.22,7.74,1.25,3.24,2.68,6.41,4,9.6a.76.76,0,0,0,.31.7,8.34,8.34,0,0,0,.39,1.31c2.87,5.94,4.74,12.3,7.6,18.24,1.64,3.41,2.78,7,4.22,10.5s3.24,6.84,4.4,10.45A7.82,7.82,0,0,1,61,214.07c-2.79,1.92-5,1.69-8.22-.86l0,0-.28-.39c-1.17-3.4-3.59-6.15-5-9.4-2.21-5.05-5.45-9.54-7.64-14.61-1.36-3.13-3.53-5.9-5-9-1.91-3.92-4.34-7.56-6.23-11.47-1.55-3.2-3.34-6.26-5-9.36a115.39,115.39,0,0,0-6.61-12.36l0,0c-.89-1.85-1.71-3.73-2.68-5.54a8.71,8.71,0,0,1,.11-8.82c1.35-2.5,2.42-5.16,3.61-7.75v0a16.64,16.64,0,0,0,1.94-3.79.7.7,0,0,0,.17-.29c1.27-1.14,1.27-2.9,2.07-4.25,3.17-5.35,5.52-11.13,8.48-16.59a9.52,9.52,0,0,0,.48-1.27h0a19,19,0,0,0,3.71-8,7.3,7.3,0,0,0-2.24-6.87c-2.7-2.72-5.16-5.67-7.72-8.52L13.8,62.46l-.05-.06C11.87,60,9.49,58,7.71,55.46a10.26,10.26,0,0,0-3.47-3.22.33.33,0,0,0-.1-.23A18.92,18.92,0,0,0,.47,47.3c-.69-.63-.59-1,.09-1.46,2.72-1.69,5-3.92,7.93-5.42a39.43,39.43,0,0,0,5.33-4,1.21,1.21,0,0,0,1.06-.64,71.55,71.55,0,0,0,10-6.92l0,0c1,.07,1.86-1.35,2.77-.74a4.8,4.8,0,0,1,1.72,2.49c0,.1.14.18.22.26A174.65,174.65,0,0,1,40.64,46c1.35,2,3,3.83,4.55,5.73a.34.34,0,0,0,.11.23c.78,1.17,1.47,2.41,2.35,3.5s1.54,2.79,3,3.56a.24.24,0,0,0,.08.21c1.6,2.51,2.84,5.27,5.17,7.25l.46.66.25.33h0L58.34,70l.37.68a2,2,0,0,0,.21.64c2.3,3,4.54,6,6.64,9.08a22.2,22.2,0,0,1,3.68,13.12c-.08,5.38-.27,10.76-.1,16.14Q69.05,114.79,69,120a14.86,14.86,0,0,0,0,4.87c-.26,3.91-.18,7.82-.12,11.73A.37.37,0,0,0,68.79,136.89Z"/><path class="cls-1" d="M75,227.31l.64-.32.41-.33v0c1.39-1.17,3.14-1.85,4.43-3.15h0a21.3,21.3,0,0,0,3.93-2,.15.15,0,0,0,.19,0l4.14-1,.69-.08c9.48.08,19,0,28.44.24,9.13.27,18.27.1,27.41.33a10.93,10.93,0,0,1,7.29,2.46,8,8,0,0,1-4,14.33c-4.05.46-8.13.57-12.2.72s-8.07.47-12.15.73c.24.69.79.81,1.18,1.11,2.14,1.62,4.73,2.3,7.08,3.47,3.69,1.84,7.13,4.15,11,5.56a4,4,0,0,0,2.81,0c4.11-1.32,7.92-3.31,11.89-4.95,7.84-3.22,15.72-6.33,23.54-9.61,4.83-2,9.61-4.15,14.61-5.76,2.38-.77,4.4-2.32,6.78-3.21,4.58-1.72,8.07-.9,10.79,3.08a5.12,5.12,0,0,1-1.82,7.84c-1.45.81-2.93,1.56-4.39,2.36-7.17,3.93-14.32,7.9-21.52,11.79-7,3.79-14.05,7.49-21.07,11.25-.68.37-1.51.59-1.92,1.37l0,0c-7.52,3.41-14.57,7.73-21.91,11.49-2.5,1.28-5,2-7.58.9s-5-2.28-7.45-3.5-4.8-2.42-7.2-3.63l-.54-.16c-1.17-1.24-2.8-1.45-4.29-2h0a16.78,16.78,0,0,0-5.48-2.81h0a5.32,5.32,0,0,0-2.09-1.47,124.31,124.31,0,0,1-12.09-6.12,11.94,11.94,0,0,0-4-1.51c-2.19-.39-4.53-.5-6.23,1.08-2.38,2.24-4.81,4.42-7.27,6.56-3.41,3-6.79,6-10.1,9.08-2.21,2.06-4.75,3.77-6.66,6.16a.33.33,0,0,0-.25.12,74.19,74.19,0,0,0-9.41,8.46l0,.09,0-.09a12.67,12.67,0,0,0-3.25,2.65c-1,1-1.37.66-2.07-.19-1-1.16-1.27-2.84-2.79-3.57l-.38-.57a36.54,36.54,0,0,0-1.92-3.42,76.74,76.74,0,0,0-5.32-7.29h0c-1-1-1.26-2.4-2-3.55-1.49-2.31-3.39-4.31-4.72-6.73-.66-1.2-.84-2.07.67-2.73a12.39,12.39,0,0,0,3.28-2.43h0a1.82,1.82,0,0,0,1.53-1.31.12.12,0,0,0,.18,0l.39-.36h0c4.51-2.12,8.09-5.59,12.1-8.42,4.38-3.09,8.94-6,13-9.57,1.75-1.56,4.24-2.07,5.6-4.13h0c1.54-1.08,3.27-1.92,4.5-3.42h0a.71.71,0,0,0,.67-.35h0A18.37,18.37,0,0,0,75,227.31Z"/><path class="cls-2" d="M144.72,115.69c7.72-12.1,21.76-13,31.26-8.47,11.5,5.49,17,18.4,13.45,31.68-3.47,12.85-11.74,22.53-21.56,30.86-6.52,5.53-13.76,10.23-20.8,15.12-1,.71-3.16,1.05-4.11.47-14.44-8.77-27.9-18.72-37.24-33.21-5.78-9-8.84-18.61-5.83-29.26,4.81-17,26.34-24,39.64-12.88A54.56,54.56,0,0,1,144.72,115.69Z"/></g></g></svg>