<svg xmlns="http://www.w3.org/2000/svg" viewBox="0 0 122.2 108"><defs><style>.cls-1{fill:#9f9fa4;}</style></defs><title>Ресурс 4</title><g id="Слой_2" data-name="Слой 2"><g id="Our_Network" data-name="Our Network"><path class="cls-1" d="M62,63.51a84.79,84.79,0,0,1,14.13.73c1.26.17,2.39.05,2.6-1.39s-.87-1.86-2.13-2A120.88,120.88,0,0,0,45.5,61c-1.25.16-1.83.13-2.18-1.31C42,54.3,40.49,48.94,39,43.59c-.41-1.46,0-2.08,1.39-2.64A89.25,89.25,0,0,0,71.21,20.16c2.06-2.16,3.34-1.76,4.15,1.22,1.17,4.28,2.32,8.56,3.41,12.85.33,1.31.72,2,2.37,1.87A9.6,9.6,0,0,1,85.88,54.4c-1.29.62-1.38,1.21-1,2.42q2.1,7.49,4,15c.55,2.13-.57,3.26-2.65,2.64a90.08,90.08,0,0,0-37.75-2.72c-1.63.21-2.21-.25-2.36-1.74a10.61,10.61,0,0,0-.41-1.52c-1.06-4.12-1.06-4.08,3.13-4.46A106.38,106.38,0,0,1,62,63.51ZM86,46a4.33,4.33,0,0,0-3.55-4.4c-1.28-.2-1.65.28-1.29,1.49s.77,2.73,1.15,4.09c.22.8.11,2.1,1,2.15s1.78-1,2.21-2A11.51,11.51,0,0,0,86,46Z"/><path class="cls-1" d="M23,68.52c3-.61,6.1-1.24,9.2-1.84a37.76,37.76,0,0,0,5.31-1c2.43-.86,3.08.22,3.58,2.33,1.07,4.53,1.16,4.51-3.4,5.37C31.29,74.58,24.86,75.75,18.45,77c-1.49.3-2.12-.05-2.5-1.53Q13.17,64.7,10.2,53.94c-.35-1.27-.22-1.83,1.15-2.29,7.31-2.51,14.6-5.12,21.86-7.76,1-.36,1.36-.16,1.61.77,1.39,5.3,2.74,10.61,4.23,15.88.5,1.75-.73,1.46-1.56,1.62-4.64.93-9.29,1.82-13.94,2.73a10.76,10.76,0,0,0-1.3.35,1.57,1.57,0,0,0-1.11,1.95C21.32,68.17,22,68.55,23,68.52Z"/><path class="cls-1" d="M42.16,77.9c1-.23,1.32.47,1.57,1.22l7.71,22.3a2.09,2.09,0,0,1-1.47,3c-3,1.09-5.87,2.27-8.83,3.35-1.7.62-2.71,0-3.12-1.8-1-4.23-2.1-8.44-3-12.68a3.44,3.44,0,0,0-2.16-2.88c-4-1.43-5.45-4.82-6.71-8.41-.22-.63-.5-1.07.49-1.25C31.83,79.82,37,78.86,42.16,77.9Z"/><path class="cls-1" d="M0,63.86c0-2.41.84-3.61,2.49-4.23.77-.28,1.63-.33,2.37-.66,1.49-.66,2-.14,2.4,1.36.93,3.86,2,7.68,3.09,11.5.34,1.19.08,1.81-1.15,2-1,.19-2,.57-3.07.68-1.54.17-3-.33-3.54-1.82C1.52,69.64.74,66.45,0,63.86Z"/><path class="cls-1" d="M102.14,70.83l6.59,1.77c3,.81,6.09,1.6,9.12,2.44,1.2.33,2.07,1.05,1.64,2.46s-1.43,1.54-2.7,1.2c-5-1.35-10-2.65-15-4-1.12-.3-1.93-1-1.72-2.26A1.93,1.93,0,0,1,102.14,70.83Z"/><path class="cls-1" d="M111.8,18a2.12,2.12,0,0,1-1.32,1.93q-6.55,3.76-13.08,7.53c-1.15.67-2.36,1-3.13-.33s-.08-2.26,1.15-3c4.37-2.5,8.71-5.06,13.09-7.53C110.29,15.64,111.82,16.33,111.8,18Z"/><path class="cls-1" d="M102.72,42.76c-1.59.12-2.38-.34-2.61-1.47a1.71,1.71,0,0,1,1.29-2.09q8-2.21,16.06-4.28a1.64,1.64,0,0,1,2.06,1.29,1.65,1.65,0,0,1-1,2.23C113.13,40,107.7,41.4,102.72,42.76Z"/><path class="cls-1" d="M99.53,1.8a2.88,2.88,0,0,1-1.15,2.07Q93.27,9,88.15,14.11c-1.05,1.06-2.23,1.82-3.48.51s-.17-2.29.78-3.23Q90.75,6.13,96,.83A2,2,0,0,1,98.42.19,1.75,1.75,0,0,1,99.53,1.8Z"/><path class="cls-1" d="M112.24,58.64c-2.64,0-5.28,0-7.91,0-1.23,0-2.1-.4-2.1-1.77A1.81,1.81,0,0,1,104.28,55c5.27,0,10.55,0,15.83,0,1.21,0,2.07.51,2.09,1.85,0,1.51-1,1.85-2.27,1.85-2.56,0-5.12,0-7.69,0Z"/><path class="cls-1" d="M86,46a11.51,11.51,0,0,1-.43,1.34c-.43,1-1.17,2-2.21,2s-.82-1.34-1-2.15c-.38-1.36-.75-2.73-1.15-4.09s0-1.69,1.29-1.49A4.33,4.33,0,0,1,86,46Z"/></g></g></svg>