<svg xmlns="http://www.w3.org/2000/svg" viewBox="0 0 26.97 26.97"><defs><style>.cls-1{fill:#fff;}</style></defs><title>Ресурс 3</title><g id="Слой_2" data-name="Слой 2"><g id="Footer"><path id="Instagram" class="cls-1" d="M23.76,0H3.21A3.2,3.2,0,0,0,0,3.2V23.77A3.2,3.2,0,0,0,3.21,27H23.76A3.2,3.2,0,0,0,27,23.77V3.2A3.2,3.2,0,0,0,23.76,0ZM19.38,4.21a.84.84,0,0,1,.84-.84h2.53a.84.84,0,0,1,.84.84V6.74a.84.84,0,0,1-.84.84H20.23a.84.84,0,0,1-.84-.84ZM13.52,8.34a5.17,5.17,0,1,1-5.19,5.17A5.18,5.18,0,0,1,13.52,8.34ZM24.44,23.6a.84.84,0,0,1-.84.84H3.37a.84.84,0,0,1-.84-.84V11H5.9a5.15,5.15,0,0,0-.59,2.56,8.2,8.2,0,0,0,16.41,0A4.31,4.31,0,0,0,21.07,11h3.37Z"/></g></g></svg>