<svg xmlns="http://www.w3.org/2000/svg" viewBox="0 0 18.01 17.72"><defs><style>.cls-1{fill:#4e5057;}</style></defs><title>Ресурс 5</title><g id="Слой_2" data-name="Слой 2"><g id="Form"><path id="Instagram" class="cls-1" d="M15.87,0H2.14A2.12,2.12,0,0,0,0,2.1V15.62a2.12,2.12,0,0,0,2.14,2.1H15.87A2.12,2.12,0,0,0,18,15.62V2.1A2.12,2.12,0,0,0,15.87,0ZM12.94,2.77a.56.56,0,0,1,.56-.55H15.2a.56.56,0,0,1,.56.55V4.43A.56.56,0,0,1,15.2,5H13.51a.56.56,0,0,1-.56-.55ZM9,5.48a3.4,3.4,0,1,1-3.46,3.4A3.43,3.43,0,0,1,9,5.48Zm7.3,10a.56.56,0,0,1-.56.55H2.25a.56.56,0,0,1-.56-.55V7.2H3.94a3.34,3.34,0,0,0-.39,1.68,5.48,5.48,0,0,0,11,0,2.8,2.8,0,0,0-.43-1.68h2.25Z"/></g></g></svg>