<svg xmlns="http://www.w3.org/2000/svg" viewBox="0 0 45 45"><defs><style>.cls-1{fill:#405c82;}</style></defs><title>Ресурс 6</title><g id="Слой_2" data-name="Слой 2"><g id="Our_Network" data-name="Our Network"><path id="Instagram" class="cls-1" d="M39.65,0H5.35A5.34,5.34,0,0,0,0,5.34V39.66A5.34,5.34,0,0,0,5.35,45h34.3A5.34,5.34,0,0,0,45,39.66V5.34A5.34,5.34,0,0,0,39.65,0ZM32.34,7a1.41,1.41,0,0,1,1.41-1.41H38A1.41,1.41,0,0,1,39.37,7v4.22A1.41,1.41,0,0,1,38,12.66H33.75a1.41,1.41,0,0,1-1.41-1.41Zm-9.79,6.89a8.63,8.63,0,1,1-8.65,8.63A8.64,8.64,0,0,1,22.55,13.92ZM40.78,39.38a1.41,1.41,0,0,1-1.41,1.41H5.63a1.41,1.41,0,0,1-1.41-1.41V18.28H9.84a8.59,8.59,0,0,0-1,4.27,13.69,13.69,0,0,0,27.38,0c0-1.25-.18-3.19-1.09-4.27h5.63Z"/></g></g></svg>