<svg xmlns="http://www.w3.org/2000/svg" viewBox="0 0 28.49 25.9"><defs><style>.cls-1{fill:#fff;}</style></defs><title>Ресурс 8</title><g id="Слой_2" data-name="Слой 2"><g id="Footer"><g id="LinkedIn"><rect class="cls-1" x="0.72" y="8.31" width="5.55" height="17.6"/><path class="cls-1" d="M21.45,8.14c-3.18,0-5.18,1.72-5.54,2.93V8.31H9.66c.08,1.47,0,17.6,0,17.6H15.9V16.38A4,4,0,0,1,16,14.94a3.18,3.18,0,0,1,3-2.16c2.17,0,3.15,1.63,3.15,4V25.9h6.3V16.12C28.49,10.67,25.39,8.14,21.45,8.14Z"/><path class="cls-1" d="M3.39,0A3.1,3.1,0,0,0,0,3.06,3.07,3.07,0,0,0,3.31,6.11h0A3.1,3.1,0,0,0,6.74,3.05,3.08,3.08,0,0,0,3.39,0Z"/></g></g></g></svg>