<svg xmlns="http://www.w3.org/2000/svg" viewBox="0 0 171.4 21"><defs><style>.cls-1{fill:#fff;}</style></defs><title>Ресурс 9</title><g id="Слой_2" data-name="Слой 2"><g id="Header"><path class="cls-1" d="M144.12,12.09a10.73,10.73,0,0,0-.25-1.66A7.15,7.15,0,0,0,143,8.34,4.72,4.72,0,0,0,141.83,7a5.46,5.46,0,0,0-1.73-.85,8.11,8.11,0,0,0-2.34-.3,7.88,7.88,0,0,0-3.79.88,6,6,0,0,0-2.52,2.58,8.66,8.66,0,0,0-.89,4.05,7.78,7.78,0,0,0,1.73,5.49,6.71,6.71,0,0,0,5.15,1.85,8.25,8.25,0,0,0,3.38-.65,8.61,8.61,0,0,0,2.23-1.5.9.9,0,0,0,.21-.2.88.88,0,0,0,.19-.54v0a.88.88,0,0,0-.2-.55l-.08-.08a.91.91,0,0,0-1.19,0l0,0a5.86,5.86,0,0,1-1.31.87,4.75,4.75,0,0,1-2,.41,3.33,3.33,0,0,1-2.84-1.24,6.51,6.51,0,0,1-.95-3.87H143a1.13,1.13,0,0,0,1.12-1.11v0s0-.07,0-.1Zm-9.19-.31a7.41,7.41,0,0,1,.8-3.26,2,2,0,0,1,1.8-1.13,1.77,1.77,0,0,1,1.7,1.09,8.42,8.42,0,0,1,.59,3.31Z"/><path class="cls-1" d="M58.73,6.25a1.2,1.2,0,0,0-.28-.06q-.53-.11-1.12-.19a17.52,17.52,0,0,0-2.41-.17,8.67,8.67,0,0,0-4,.89,6.16,6.16,0,0,0-2.68,2.63,8.55,8.55,0,0,0-.93,4.11A7.67,7.67,0,0,0,49,18.83a6.38,6.38,0,0,0,4.94,1.85,7.31,7.31,0,0,0,3-.6,9.12,9.12,0,0,0,2.15-1.38h0a.88.88,0,0,0,.32-.67v0a.9.9,0,0,0-.91-.88.92.92,0,0,0-.55.18l0,0a6.09,6.09,0,0,1-1.11.71,3.78,3.78,0,0,1-1.63.36,2.84,2.84,0,0,1-1.93-.63A3.58,3.58,0,0,1,52.17,16a10.72,10.72,0,0,1-.33-2.86,14.56,14.56,0,0,1,.22-2.81,5.93,5.93,0,0,1,.6-1.77,2.33,2.33,0,0,1,.88-.93,2.2,2.2,0,0,1,1.05-.27A1.49,1.49,0,0,1,55.89,8a3.62,3.62,0,0,1,.5,1.17v0a1.16,1.16,0,0,0,1.09.79h.88a1.15,1.15,0,0,0,1.15-1.13V7.33A1.15,1.15,0,0,0,58.73,6.25Z"/><path class="cls-1" d="M87.88,14.55a4.58,4.58,0,0,0-1.33-1.46,12.81,12.81,0,0,0-2.4-1.32,13.35,13.35,0,0,1-1.83-.93,2.71,2.71,0,0,1-.84-.78,1.73,1.73,0,0,1-.24-.93,1.37,1.37,0,0,1,.27-.86,1.65,1.65,0,0,1,.75-.53,3.66,3.66,0,0,1,2.35,0,1.9,1.9,0,0,1,.79.63,3,3,0,0,1,.37.67h0a1.21,1.21,0,0,0,1.15.71,1.14,1.14,0,0,0,1.21-1V7.2a1.08,1.08,0,0,0-.95-1h0c-.54-.09-1-.16-1.48-.21-.66-.07-1.37-.1-2.09-.1a10.76,10.76,0,0,0-3.34.47A4.82,4.82,0,0,0,78,7.79a3.47,3.47,0,0,0-.79,2.29,3.38,3.38,0,0,0,.32,1.48,4.21,4.21,0,0,0,.88,1.2,6.72,6.72,0,0,0,1.35,1,17.13,17.13,0,0,0,1.74.85,10.23,10.23,0,0,1,1.67.87,2.74,2.74,0,0,1,.83.82,1.94,1.94,0,0,1,.25,1,1.6,1.6,0,0,1-1.1,1.61,3.47,3.47,0,0,1-1.18.19,2.87,2.87,0,0,1-1.89-.54,2.73,2.73,0,0,1-.73-1.07.93.93,0,0,0-.08-.2,1.24,1.24,0,0,0-1.1-.61,1.13,1.13,0,0,0-1.21,1v1.72a1.05,1.05,0,0,0,.78,1,1.39,1.39,0,0,0,.41.07c.5.07,1,.14,1.56.18.9.08,1.77.12,2.6.12a8.94,8.94,0,0,0,3.16-.52,4.6,4.6,0,0,0,2.13-1.52,4.08,4.08,0,0,0,.3-4.15Z"/><path class="cls-1" d="M101.65,14.55a4.57,4.57,0,0,0-1.33-1.46,12.81,12.81,0,0,0-2.4-1.32,13.36,13.36,0,0,1-1.83-.93,2.71,2.71,0,0,1-.84-.78A1.73,1.73,0,0,1,95,9.12a1.37,1.37,0,0,1,.27-.86A1.64,1.64,0,0,1,96,7.73a3.65,3.65,0,0,1,2.35,0,1.9,1.9,0,0,1,.79.63,3.05,3.05,0,0,1,.37.67h0a1.21,1.21,0,0,0,1.15.71,1.14,1.14,0,0,0,1.21-1V7.2a1.08,1.08,0,0,0-.94-1h-.05c-.54-.09-1-.16-1.48-.21-.66-.07-1.37-.1-2.09-.1A10.76,10.76,0,0,0,94,6.36a4.82,4.82,0,0,0-2.26,1.43A3.47,3.47,0,0,0,91,10.07a3.38,3.38,0,0,0,.32,1.48,4.21,4.21,0,0,0,.88,1.2,6.71,6.71,0,0,0,1.35,1,17.14,17.14,0,0,0,1.74.85,10.24,10.24,0,0,1,1.67.87,2.74,2.74,0,0,1,.83.82,1.94,1.94,0,0,1,.25,1,1.6,1.6,0,0,1-1.1,1.61,3.46,3.46,0,0,1-1.18.19,2.87,2.87,0,0,1-1.89-.54,2.73,2.73,0,0,1-.73-1.07.93.93,0,0,0-.08-.2,1.24,1.24,0,0,0-1.1-.61,1.13,1.13,0,0,0-1.21,1v1.72a1.05,1.05,0,0,0,.78,1,1.39,1.39,0,0,0,.41.07c.5.07,1,.14,1.56.18.9.08,1.77.12,2.6.12a8.94,8.94,0,0,0,3.16-.52,4.6,4.6,0,0,0,2.13-1.52,4.08,4.08,0,0,0,.3-4.15Z"/><path class="cls-1" d="M74.72,12.1a10.73,10.73,0,0,0-.25-1.66,7.15,7.15,0,0,0-.84-2.09A4.72,4.72,0,0,0,72.44,7a5.46,5.46,0,0,0-1.73-.85,8.11,8.11,0,0,0-2.34-.3,7.88,7.88,0,0,0-3.79.88,6,6,0,0,0-2.52,2.58,8.66,8.66,0,0,0-.89,4.05,7.78,7.78,0,0,0,1.73,5.49A6.71,6.71,0,0,0,68,20.73a8.25,8.25,0,0,0,3.38-.65,8.61,8.61,0,0,0,2.23-1.5.9.9,0,0,0,.21-.2.88.88,0,0,0,.19-.54v0a.88.88,0,0,0-.2-.55l-.08-.08a.91.91,0,0,0-1.19,0l0,0a5.86,5.86,0,0,1-1.31.87,4.75,4.75,0,0,1-2,.41,3.33,3.33,0,0,1-2.84-1.24,6.51,6.51,0,0,1-.95-3.87h8.15a1.13,1.13,0,0,0,1.12-1.11v0s0-.07,0-.1Zm-9.19-.31a7.41,7.41,0,0,1,.8-3.26,2,2,0,0,1,1.8-1.13,1.77,1.77,0,0,1,1.7,1.09,8.42,8.42,0,0,1,.59,3.31Z"/><path class="cls-1" d="M11.09,10.27A14.62,14.62,0,0,0,8.26,8.45,15.64,15.64,0,0,1,6,7.11,3.84,3.84,0,0,1,4.9,5.91a3,3,0,0,1-.33-1.46,2.45,2.45,0,0,1,.38-1.38A2.36,2.36,0,0,1,6,2.2a3.67,3.67,0,0,1,1.49-.29,3.66,3.66,0,0,1,1.62.32,2.7,2.7,0,0,1,1.08,1,4.85,4.85,0,0,1,.48,1v0a1.15,1.15,0,0,0,2.23-.35V1.75A1.13,1.13,0,0,0,12,.65H12Q11,.45,10.19.35A21.62,21.62,0,0,0,7.7.21,10.94,10.94,0,0,0,3.78.86,5.47,5.47,0,0,0,1.2,2.75a5.07,5.07,0,0,0-.89,3,5.09,5.09,0,0,0,.36,2,5.62,5.62,0,0,0,1,1.6,8,8,0,0,0,1.57,1.34,19.24,19.24,0,0,0,2.06,1.17,12.12,12.12,0,0,1,2.08,1.26,3.92,3.92,0,0,1,1.08,1.25,3.39,3.39,0,0,1,.34,1.56,2.92,2.92,0,0,1-.42,1.62,2.4,2.4,0,0,1-1.11.94,4,4,0,0,1-1.55.29,3.42,3.42,0,0,1-2.51-.85,4.21,4.21,0,0,1-1-1.65A1.11,1.11,0,0,0,2.18,16,1.14,1.14,0,0,0,0,16.5v2.41A1.13,1.13,0,0,0,.74,20a1.15,1.15,0,0,0,.4.07h0q.91.16,1.89.26a30.37,30.37,0,0,0,3.11.17,9.07,9.07,0,0,0,3.69-.7,5.34,5.34,0,0,0,2.43-2,5.65,5.65,0,0,0,.83-3.1,5.73,5.73,0,0,0-.49-2.44A5.86,5.86,0,0,0,11.09,10.27Z"/><path class="cls-1" d="M26.25,20.36h0Z"/><path class="cls-1" d="M30.82,19.31l-.1,0a1.94,1.94,0,0,1-.48-.21,1.14,1.14,0,0,1-.42-.5,2.54,2.54,0,0,1-.17-.81q0-.51,0-1.61V14.66h0c0-.19,0-.4,0-.61V7.12A1.14,1.14,0,0,0,28.47,6h-4a.55.55,0,0,0-.55.55h0a.54.54,0,0,0,0,.07v.08l0,0v0l0,0h0l.05.08h0a.56.56,0,0,0,.22.16h0l.27.12a1.35,1.35,0,0,1,.38.29,1.28,1.28,0,0,1,.22.36,2.18,2.18,0,0,1,.12.44,5.53,5.53,0,0,1,.07.67q0,.43,0,1.25v4.47h0v1.13a2.21,2.21,0,0,1-.42,1.28,3,3,0,0,1-1,.94,2.36,2.36,0,0,1-1.14.33,1.79,1.79,0,0,1-.92-.21,1.67,1.67,0,0,1-.61-.67,3.42,3.42,0,0,1-.34-1.24q-.07-.6-.08-1.56c0-.19,0-.4,0-.61V7.14h0A1.14,1.14,0,0,0,19.7,6h-4a.55.55,0,0,0-.55.55h0a.54.54,0,0,0,0,.07v.08l0,0v0l0,0h0l.05.08h0a.56.56,0,0,0,.22.16h0l.27.12a1.35,1.35,0,0,1,.38.29,1.28,1.28,0,0,1,.22.36,2.18,2.18,0,0,1,.12.44,5.53,5.53,0,0,1,.07.67q0,.43,0,1.25V15.5A8.4,8.4,0,0,0,17,18.36,3.21,3.21,0,0,0,18.36,20a4.69,4.69,0,0,0,2.48.57A5.1,5.1,0,0,0,23,20.12a27.46,27.46,0,0,0,2.61-1.7l-.06,1h0a1.14,1.14,0,0,0,1.12,1.13h4a.62.62,0,0,0,.61-.62h0A.62.62,0,0,0,30.82,19.31Z"/><path class="cls-1" d="M44.87,6.3a1.2,1.2,0,0,0-.28-.06q-.53-.11-1.12-.19a17.52,17.52,0,0,0-2.41-.17,8.67,8.67,0,0,0-4,.89A6.16,6.16,0,0,0,34.38,9.4a8.55,8.55,0,0,0-.93,4.11,7.67,7.67,0,0,0,1.7,5.37,6.38,6.38,0,0,0,4.94,1.85,7.31,7.31,0,0,0,3-.6,9.12,9.12,0,0,0,2.15-1.38h0a.88.88,0,0,0,.32-.67v0a.9.9,0,0,0-.91-.88.92.92,0,0,0-.55.18l0,0a6.09,6.09,0,0,1-1.11.71,3.78,3.78,0,0,1-1.63.36,2.84,2.84,0,0,1-1.93-.63A3.58,3.58,0,0,1,38.31,16,10.72,10.72,0,0,1,38,13.16a14.56,14.56,0,0,1,.22-2.81,5.93,5.93,0,0,1,.6-1.77,2.33,2.33,0,0,1,.88-.93,2.2,2.2,0,0,1,1.05-.27A1.49,1.49,0,0,1,42,8a3.62,3.62,0,0,1,.5,1.17v0a1.16,1.16,0,0,0,1.09.79h.88a1.15,1.15,0,0,0,1.15-1.13V7.38A1.15,1.15,0,0,0,44.87,6.3Z"/><path class="cls-1" d="M123.07,5.91h0Z"/><polygon class="cls-1" points="124.13 6.97 124.13 6.96 124.13 7.01 124.13 7 124.13 6.97"/><polygon class="cls-1" points="119.01 5.91 118.99 5.91 118.99 5.91 119.01 5.91 119.01 5.91"/><path class="cls-1" d="M171,19.7l-.06,0a2.06,2.06,0,0,1-.54-.23A1.14,1.14,0,0,1,170,19a2.54,2.54,0,0,1-.17-.81q0-.51,0-1.61V1.06A1.09,1.09,0,0,0,168.73,0H168l-3.49.17h0a.56.56,0,0,0-.52.54v0a.56.56,0,0,0,.39.51l.06,0a2,2,0,0,1,.56.23,1.14,1.14,0,0,1,.42.53,3.34,3.34,0,0,1,.18,1q0,.65,0,2.2V6.54a11,11,0,0,0-1.47-.31,10,10,0,0,0-1.27-.08A7.86,7.86,0,0,0,159,7a5.57,5.57,0,0,0-2.39,2.56,9.62,9.62,0,0,0-.81,4.15,9.22,9.22,0,0,0,1.33,5.45,4.62,4.62,0,0,0,4,1.81,5.06,5.06,0,0,0,2.23-.57,24.54,24.54,0,0,0,2.44-1.62l-.06.88v.12a1.09,1.09,0,0,0,1.08,1.09h.62l3.37-.11h.13a.56.56,0,0,0,.48-.53v0A.56.56,0,0,0,171,19.7ZM165.56,16a2.64,2.64,0,0,1-.42,1.49,2.7,2.7,0,0,1-1,1,2.77,2.77,0,0,1-1.25.31,2.07,2.07,0,0,1-2-1.41,11,11,0,0,1-.63-4.26,11.14,11.14,0,0,1,.33-2.89,4.06,4.06,0,0,1,1-1.86,2.14,2.14,0,0,1,1.56-.65,2.1,2.1,0,0,1,1.84.86,4.61,4.61,0,0,1,.6,2.62Z"/><path class="cls-1" d="M117.51.6H105a.55.55,0,0,0-.22,1.05l.1,0a2.7,2.7,0,0,1,.44.2,1.18,1.18,0,0,1,.47.47,2,2,0,0,1,.19.76q0,.47,0,1.15V16.78q0,.7,0,1.16a2.1,2.1,0,0,1-.2.76,1.12,1.12,0,0,1-.47.47,2.68,2.68,0,0,1-.45.19l-.06,0a.55.55,0,0,0,0,1h6.73a.55.55,0,0,0,.28-1l-.08,0-.06,0a2.7,2.7,0,0,1-.44-.19L111,19a1.26,1.26,0,0,1-.29-.4,2,2,0,0,1-.16-.65,11.65,11.65,0,0,1,0-1.17V11.4h1.87a2.17,2.17,0,0,1,1,.2,1.22,1.22,0,0,1,.26.2,1.78,1.78,0,0,1,.37.52,4,4,0,0,1,.26.73v0a.92.92,0,0,0,.84.64h.07a.91.91,0,0,0,.88-.89V8.28a.91.91,0,0,0-.88-.89h-.07a.92.92,0,0,0-.84.64v0a4,4,0,0,1-.26.73,1.78,1.78,0,0,1-.37.52,1.22,1.22,0,0,1-.26.2,2.17,2.17,0,0,1-1,.2h-1.87V2.3h2.83a3.27,3.27,0,0,1,1.6.28,2.64,2.64,0,0,1,.81.77,5.63,5.63,0,0,1,.51,1,1.08,1.08,0,0,0,.11.28,1.1,1.1,0,0,0,.93.56h.25a1.09,1.09,0,0,0,1-1.07V1.67A1.1,1.1,0,0,0,117.51.6Z"/><path class="cls-1" d="M153,19.83a2.38,2.38,0,0,1-.36-.15,1.22,1.22,0,0,1-.38-.29,1.41,1.41,0,0,1-.21-.35,1.85,1.85,0,0,1-.09-.29l0-.14a5.51,5.51,0,0,1-.07-.68q0-.44,0-1.25V1.17A1.09,1.09,0,0,0,150.81.11h-.75l-3.49.17h-.08a.55.55,0,0,0-.1,1.07l.06,0a2.28,2.28,0,0,1,.45.16,1.11,1.11,0,0,1,.43.38,1.69,1.69,0,0,1,.22.64,8,8,0,0,1,.09,1q0,.59,0,1.83V16.68h0v.13q0,.79,0,1.24c0,.11,0,.35,0,.21a2.52,2.52,0,0,1-.12.61,1.74,1.74,0,0,1-.24.46,1.23,1.23,0,0,1-.39.32,2,2,0,0,1-.34.14.55.55,0,0,0-.32.47v.07a.56.56,0,0,0,.56.52h6a.56.56,0,0,0,.56-.52v-.07A.55.55,0,0,0,153,19.83Z"/><path class="cls-1" d="M127.9,19.58a2.43,2.43,0,0,1-.36-.14,1.22,1.22,0,0,1-.38-.28,1.34,1.34,0,0,1-.21-.33,1.72,1.72,0,0,1-.09-.28l0-.13a5.06,5.06,0,0,1-.07-.65q0-.42,0-1.2V7.71a1.07,1.07,0,0,0-1.08-1h-4.17a.61.61,0,0,0-.6.5.52.52,0,0,0,0,.19.6.6,0,0,0,.41.46l.06,0,.34.12a1.15,1.15,0,0,1,.5.38,1.52,1.52,0,0,1,.25.67,7.27,7.27,0,0,1,.07,1.1v6.46a11.49,11.49,0,0,1-.09,1.82l0,.15a1.47,1.47,0,0,1-.33.64,1.54,1.54,0,0,1-.6.35l-.06,0a.53.53,0,0,0-.32.45v.06a.55.55,0,0,0,.56.5h6a.55.55,0,0,0,.56-.5V20A.53.53,0,0,0,127.9,19.58Z"/><ellipse class="cls-1" cx="124.54" cy="2.13" rx="2.01" ry="1.78"/></g></g></svg>