<svg xmlns="http://www.w3.org/2000/svg" viewBox="0 0 299.9 289.48"><defs><style>.cls-1{fill:#ac1b21;}.cls-2{fill:#f4de47;}.cls-3{fill:#405c82;}.cls-4{fill:#66a6dd;}.cls-5{fill:#4f629a;}.cls-6{fill:#9f9fa4;}</style></defs><title>Ресурс 2</title><g id="Слой_2" data-name="Слой 2"><g id="Our_Network" data-name="Our Network"><g id="Youtube"><path class="cls-1" d="M297.66,107.45a6.4,6.4,0,0,0-4.51-1.92c-6.3-.46-15.74-.46-15.74-.46h0s-9.45,0-15.74.46a6.41,6.41,0,0,0-4.51,1.92c-1.35,1.38-1.79,4.5-1.79,4.5a69,69,0,0,0-.45,7.33v3.44a69,69,0,0,0,.45,7.33s.44,3.12,1.79,4.5c1.71,1.81,4,1.75,5,1.94,3.6.35,15.3.46,15.3.46s9.46,0,15.75-.47a6.41,6.41,0,0,0,4.51-1.92c1.35-1.38,1.79-4.5,1.79-4.5a69,69,0,0,0,.45-7.33v-3.44a69,69,0,0,0-.45-7.33S299,108.83,297.66,107.45Zm-24.91,19.44V114.16l12.16,6.39Z"/></g><path id="Snapchat" class="cls-2" d="M44.12,131.05c-6-1-8.73-7.15-8.84-7.41l0-.05a1.86,1.86,0,0,1-.21-1.53c.33-.77,1.59-1.17,2.42-1.43.24-.08.47-.15.66-.22a5.06,5.06,0,0,0,1.79-1.07,1.7,1.7,0,0,0,.55-1.23A1.93,1.93,0,0,0,39,116.43a2.59,2.59,0,0,0-1-.19,2.2,2.2,0,0,0-.91.19,5.14,5.14,0,0,1-1.88.53,1.7,1.7,0,0,1-.62-.14c0-.28,0-.57.05-.87v-.13c.19-3,.43-6.84-.57-9.09a12.26,12.26,0,0,0-2.75-3.94,11.49,11.49,0,0,0-3.29-2.17,13.14,13.14,0,0,0-5.14-1.08H22a13.07,13.07,0,0,0-5.14,1.09,11.47,11.47,0,0,0-3.28,2.17,12.25,12.25,0,0,0-2.74,3.93c-1,2.25-.77,6-.58,9.08h0c0,.33,0,.67.06,1a1.77,1.77,0,0,1-.74.14,4.89,4.89,0,0,1-2-.54,1.8,1.8,0,0,0-.76-.16,2.71,2.71,0,0,0-1.35.38,1.86,1.86,0,0,0-1,1.22,1.67,1.67,0,0,0,.64,1.58,5.5,5.5,0,0,0,1.68,1c.19.08.42.15.66.22.83.26,2.09.66,2.42,1.43a1.86,1.86,0,0,1-.21,1.53l0,.05a14.81,14.81,0,0,1-2.26,3.51,12.73,12.73,0,0,1-2.73,2.41,10.07,10.07,0,0,1-3.84,1.49,1.05,1.05,0,0,0-.88,1.1,1.38,1.38,0,0,0,.11.46h0a2.82,2.82,0,0,0,1.52,1.3A17.45,17.45,0,0,0,6,135.06a5.38,5.38,0,0,1,.27,1c.07.34.15.69.26,1.06a1.15,1.15,0,0,0,1.21.88,5.82,5.82,0,0,0,1-.14,11.69,11.69,0,0,1,2.36-.27,10.37,10.37,0,0,1,1.69.14A8,8,0,0,1,16,139.32a10.22,10.22,0,0,0,6.22,2.42h.55A10.22,10.22,0,0,0,29,139.32h0a8,8,0,0,1,3.15-1.63,10.38,10.38,0,0,1,1.69-.14,11.82,11.82,0,0,1,2.36.25,5.61,5.61,0,0,0,1,.13h.05a1.14,1.14,0,0,0,1.16-.86c.11-.36.18-.7.26-1a5.48,5.48,0,0,1,.27-1,17.48,17.48,0,0,0,4.4-1.15,2.82,2.82,0,0,0,1.52-1.3,1.34,1.34,0,0,0,.11-.46A1.05,1.05,0,0,0,44.12,131.05Z"/><path id="Instagram" class="cls-3" d="M234.43,244.48h-34.3a5.34,5.34,0,0,0-5.35,5.34v34.33a5.34,5.34,0,0,0,5.35,5.34h34.3a5.34,5.34,0,0,0,5.35-5.34V249.81A5.34,5.34,0,0,0,234.43,244.48Zm-7.31,7a1.41,1.41,0,0,1,1.41-1.41h4.22a1.41,1.41,0,0,1,1.41,1.41v4.22a1.41,1.41,0,0,1-1.41,1.41h-4.22a1.41,1.41,0,0,1-1.41-1.41Zm-9.79,6.89a8.63,8.63,0,1,1-8.65,8.63A8.64,8.64,0,0,1,217.34,258.4Zm18.23,25.46a1.41,1.41,0,0,1-1.41,1.41H200.41a1.41,1.41,0,0,1-1.41-1.41V262.76h5.63a8.59,8.59,0,0,0-1,4.27A13.69,13.69,0,0,0,231,267c0-1.25-.18-3.19-1.09-4.27h5.63Z"/><path id="Twitter" class="cls-4" d="M98.48,248.92a18.18,18.18,0,0,1-5.87,2.29,9.1,9.1,0,0,0-6.74-3,9.35,9.35,0,0,0-9.23,9.47,9.66,9.66,0,0,0,.24,2.16,26,26,0,0,1-19-9.89,9.64,9.64,0,0,0-1.25,4.76,9.53,9.53,0,0,0,4.11,7.88,9.06,9.06,0,0,1-4.18-1.18v.12a9.41,9.41,0,0,0,7.41,9.28,8.8,8.8,0,0,1-2.43.33,9,9,0,0,1-1.74-.17,9.27,9.27,0,0,0,8.62,6.57,18.23,18.23,0,0,1-11.47,4.05,18.48,18.48,0,0,1-2.2-.13,25.7,25.7,0,0,0,14.15,4.25c17,0,26.27-14.42,26.27-26.93,0-.41,0-.82,0-1.23a19,19,0,0,0,4.6-4.9,18,18,0,0,1-5.3,1.49A9.45,9.45,0,0,0,98.48,248.92Z"/><path id="Facebook" class="cls-5" d="M169.75,42.52A2.48,2.48,0,0,1,167.27,45H155.8V27.57h5.85l.88-6.79H155.8V16.45c0-2,.55-3.31,3.37-3.31h3.6V7.06a48.06,48.06,0,0,0-5.24-.27c-5.19,0-8.73,3.16-8.73,9v5h-5.86v6.79h5.86V45H127.24a2.48,2.48,0,0,1-2.48-2.48v-40A2.48,2.48,0,0,1,127.24,0h40a2.48,2.48,0,0,1,2.48,2.48Z"/><path class="cls-6" d="M148.12,154.24a84.79,84.79,0,0,1,14.13.73c1.26.17,2.39.05,2.6-1.39s-.87-1.86-2.13-2a120.88,120.88,0,0,0-31.07.19c-1.25.16-1.83.13-2.18-1.31-1.34-5.4-2.83-10.75-4.35-16.1-.41-1.46,0-2.08,1.39-2.64a89.25,89.25,0,0,0,30.86-20.79c2.06-2.16,3.34-1.76,4.15,1.22,1.17,4.28,2.32,8.56,3.41,12.85.33,1.31.72,2,2.37,1.87A9.6,9.6,0,0,1,172,145.14c-1.29.62-1.38,1.21-1,2.42q2.1,7.49,4,15c.55,2.13-.57,3.26-2.65,2.64a90.08,90.08,0,0,0-37.75-2.72c-1.63.21-2.21-.25-2.36-1.74a10.61,10.61,0,0,0-.41-1.52c-1.06-4.12-1.06-4.08,3.13-4.46A106.38,106.38,0,0,1,148.12,154.24Zm24-17.5a4.33,4.33,0,0,0-3.55-4.4c-1.28-.2-1.65.28-1.29,1.49s.77,2.73,1.15,4.09c.22.8.11,2.1,1,2.15s1.78-1,2.21-2A11.51,11.51,0,0,0,172.12,136.75Z"/><path class="cls-6" d="M109.19,159.26c3-.61,6.1-1.24,9.2-1.84a37.76,37.76,0,0,0,5.31-1c2.43-.86,3.08.22,3.58,2.33,1.07,4.53,1.16,4.51-3.4,5.37-6.43,1.21-12.86,2.38-19.28,3.66-1.49.3-2.12-.05-2.5-1.53q-2.78-10.8-5.75-21.56c-.35-1.27-.22-1.83,1.15-2.29,7.31-2.51,14.6-5.12,21.86-7.76,1-.36,1.36-.16,1.61.77,1.39,5.3,2.74,10.61,4.23,15.88.5,1.75-.73,1.46-1.56,1.62-4.64.93-9.29,1.82-13.94,2.73a10.76,10.76,0,0,0-1.3.35,1.57,1.57,0,0,0-1.11,1.95C107.48,158.91,108.15,159.29,109.19,159.26Z"/><path class="cls-6" d="M128.32,168.64c1-.23,1.32.47,1.57,1.22l7.71,22.3a2.09,2.09,0,0,1-1.47,3c-3,1.09-5.87,2.27-8.83,3.35-1.7.62-2.71,0-3.12-1.8-1-4.23-2.1-8.44-3-12.68a3.44,3.44,0,0,0-2.16-2.88c-4-1.43-5.45-4.82-6.71-8.41-.22-.63-.5-1.07.49-1.25C118,170.56,123.15,169.59,128.32,168.64Z"/><path class="cls-6" d="M86.16,154.6c0-2.41.84-3.61,2.49-4.23.77-.28,1.63-.33,2.37-.66,1.49-.66,2-.14,2.4,1.36.93,3.86,2,7.68,3.09,11.5.34,1.19.08,1.81-1.15,2-1,.19-2,.57-3.07.68-1.54.17-3-.33-3.54-1.82C87.68,160.38,86.89,157.18,86.16,154.6Z"/><path class="cls-6" d="M188.3,161.56l6.59,1.77c3,.81,6.09,1.6,9.12,2.44,1.2.33,2.07,1.05,1.64,2.46s-1.43,1.54-2.7,1.2c-5-1.35-10-2.65-15-4-1.12-.3-1.93-1-1.72-2.26A1.93,1.93,0,0,1,188.3,161.56Z"/><path class="cls-6" d="M198,108.73a2.12,2.12,0,0,1-1.32,1.93q-6.55,3.76-13.08,7.53c-1.15.67-2.36,1-3.13-.33s-.08-2.26,1.15-3c4.37-2.5,8.71-5.06,13.09-7.53C196.44,106.38,198,107.07,198,108.73Z"/><path class="cls-6" d="M188.87,133.49c-1.59.12-2.38-.34-2.61-1.47a1.71,1.71,0,0,1,1.29-2.09q8-2.21,16.06-4.28a1.86,1.86,0,0,1,1.08,3.52C199.29,130.71,193.86,132.14,188.87,133.49Z"/><path class="cls-6" d="M185.68,92.53a2.88,2.88,0,0,1-1.15,2.07q-5.11,5.12-10.22,10.24c-1.05,1.06-2.23,1.82-3.48.51s-.17-2.29.78-3.23q5.29-5.26,10.55-10.55a2,2,0,0,1,2.42-.64A1.75,1.75,0,0,1,185.68,92.53Z"/><path class="cls-6" d="M198.4,149.38c-2.64,0-5.28,0-7.91,0-1.23,0-2.1-.4-2.1-1.77a1.81,1.81,0,0,1,2.06-1.91c5.27,0,10.55,0,15.83,0,1.21,0,2.07.51,2.09,1.85,0,1.51-1,1.85-2.27,1.85-2.56,0-5.12,0-7.69,0Z"/><path class="cls-6" d="M172.12,136.75a11.51,11.51,0,0,1-.43,1.34c-.43,1-1.17,2-2.21,2s-.82-1.34-1-2.15c-.38-1.36-.75-2.73-1.15-4.09s0-1.69,1.29-1.49A4.33,4.33,0,0,1,172.12,136.75Z"/></g></g></svg>