<svg xmlns="http://www.w3.org/2000/svg" viewBox="0 0 45 42.19"><defs><style>.cls-1{fill:#f4de47;}</style></defs><title>Snapchat</title><g id="Слой_2" data-name="Слой 2"><g id="Our_Network" data-name="Our Network"><path id="Snapchat" class="cls-1" d="M44.12,31.5c-6-1-8.73-7.15-8.84-7.41l0-.05A1.86,1.86,0,0,1,35,22.51c.33-.77,1.59-1.17,2.42-1.43.24-.08.47-.15.66-.22a5.06,5.06,0,0,0,1.79-1.07,1.7,1.7,0,0,0,.55-1.23A1.93,1.93,0,0,0,39,16.88a2.59,2.59,0,0,0-1-.19,2.2,2.2,0,0,0-.91.19,5.14,5.14,0,0,1-1.88.53,1.7,1.7,0,0,1-.62-.14c0-.28,0-.57.05-.87v-.13c.19-3,.43-6.84-.57-9.09a12.26,12.26,0,0,0-2.75-3.94,11.49,11.49,0,0,0-3.29-2.17A13.14,13.14,0,0,0,22.93,0H22A13.07,13.07,0,0,0,16.9,1.09a11.47,11.47,0,0,0-3.28,2.17,12.25,12.25,0,0,0-2.74,3.93c-1,2.25-.77,6-.58,9.08h0c0,.33,0,.67.06,1a1.77,1.77,0,0,1-.74.14,4.89,4.89,0,0,1-2-.54,1.8,1.8,0,0,0-.76-.16,2.71,2.71,0,0,0-1.35.38,1.86,1.86,0,0,0-1,1.22,1.67,1.67,0,0,0,.64,1.58,5.5,5.5,0,0,0,1.68,1c.19.07.42.15.66.22.83.26,2.09.66,2.42,1.43A1.86,1.86,0,0,1,9.74,24l0,.05a14.81,14.81,0,0,1-2.26,3.51A12.73,12.73,0,0,1,4.72,30,10.07,10.07,0,0,1,.88,31.5,1.05,1.05,0,0,0,0,32.6a1.38,1.38,0,0,0,.11.46h0a2.82,2.82,0,0,0,1.52,1.3A17.45,17.45,0,0,0,6,35.51a5.38,5.38,0,0,1,.27,1c.07.34.15.69.26,1.06a1.15,1.15,0,0,0,1.21.88,5.82,5.82,0,0,0,1-.14A11.69,11.69,0,0,1,11.17,38a10.37,10.37,0,0,1,1.69.14A8,8,0,0,1,16,39.77a10.22,10.22,0,0,0,6.22,2.42h.55A10.22,10.22,0,0,0,29,39.77h0a8,8,0,0,1,3.15-1.63A10.38,10.38,0,0,1,33.83,38a11.82,11.82,0,0,1,2.36.25,5.61,5.61,0,0,0,1,.13h.05a1.14,1.14,0,0,0,1.16-.86c.11-.36.18-.7.26-1a5.48,5.48,0,0,1,.27-1,17.48,17.48,0,0,0,4.4-1.15,2.82,2.82,0,0,0,1.52-1.3A1.34,1.34,0,0,0,45,32.6,1.05,1.05,0,0,0,44.12,31.5Z"/></g></g></svg>