<svg xmlns="http://www.w3.org/2000/svg" viewBox="0 0 28.77 26.97"><defs><style>.cls-1{fill:#fff;}</style></defs><title>Ресурс 10</title><g id="Слой_2" data-name="Слой 2"><g id="Footer"><path id="Snapchat" class="cls-1" d="M28.2,20.14c-3.85-.63-5.58-4.57-5.65-4.74l0,0a1.19,1.19,0,0,1-.14-1c.21-.49,1-.75,1.55-.92l.42-.14a3.23,3.23,0,0,0,1.15-.69,1.09,1.09,0,0,0,.35-.78,1.24,1.24,0,0,0-.92-1.07,1.66,1.66,0,0,0-.63-.12,1.4,1.4,0,0,0-.58.12,3.29,3.29,0,0,1-1.2.34,1.09,1.09,0,0,1-.4-.09l0-.56V10.4c.12-1.95.28-4.37-.37-5.81a7.84,7.84,0,0,0-1.76-2.52A7.35,7.35,0,0,0,17.95.69,8.4,8.4,0,0,0,14.66,0h-.57A8.35,8.35,0,0,0,10.8.7a7.33,7.33,0,0,0-2.1,1.39A7.83,7.83,0,0,0,7,4.6C6.31,6,6.46,8.46,6.59,10.4h0l0,.64a1.13,1.13,0,0,1-.47.09,3.13,3.13,0,0,1-1.28-.34,1.15,1.15,0,0,0-.49-.1,1.73,1.73,0,0,0-.86.24,1.19,1.19,0,0,0-.61.78,1.07,1.07,0,0,0,.41,1,3.51,3.51,0,0,0,1.07.61l.42.14c.53.17,1.34.42,1.55.92a1.19,1.19,0,0,1-.14,1v0a9.46,9.46,0,0,1-1.45,2.24A8.13,8.13,0,0,1,3,19.18a6.44,6.44,0,0,1-2.45,1,.67.67,0,0,0-.56.7.88.88,0,0,0,.07.29h0A1.8,1.8,0,0,0,1,22a11.16,11.16,0,0,0,2.81.73,3.44,3.44,0,0,1,.17.62c0,.22.1.44.17.67a.74.74,0,0,0,.77.56,3.72,3.72,0,0,0,.66-.09,7.48,7.48,0,0,1,1.51-.17,6.63,6.63,0,0,1,1.08.09,5.13,5.13,0,0,1,2,1,6.53,6.53,0,0,0,4,1.55h.35a6.53,6.53,0,0,0,4-1.55h0a5.14,5.14,0,0,1,2-1,6.64,6.64,0,0,1,1.08-.09,7.55,7.55,0,0,1,1.51.16,3.59,3.59,0,0,0,.66.08h0a.73.73,0,0,0,.74-.55c.07-.23.12-.45.17-.67a3.5,3.5,0,0,1,.17-.62A11.17,11.17,0,0,0,27.72,22a1.8,1.8,0,0,0,1-.83.86.86,0,0,0,.07-.3A.67.67,0,0,0,28.2,20.14Z"/></g></g></svg>