<svg xmlns="http://www.w3.org/2000/svg" viewBox="0 0 45 37.5"><defs><style>.cls-1{fill:#66a6dd;}</style></defs><title>Twitter</title><g id="Слой_2" data-name="Слой 2"><g id="Our_Network" data-name="Our Network"><path id="Twitter" class="cls-1" d="M43.76.69A18.18,18.18,0,0,1,37.89,3a9.1,9.1,0,0,0-6.74-3,9.35,9.35,0,0,0-9.23,9.47,9.66,9.66,0,0,0,.24,2.16,26,26,0,0,1-19-9.89A9.64,9.64,0,0,0,1.88,6.49,9.53,9.53,0,0,0,6,14.37a9.06,9.06,0,0,1-4.18-1.18v.12a9.41,9.41,0,0,0,7.41,9.28,8.8,8.8,0,0,1-2.43.33A9,9,0,0,1,5,22.75a9.27,9.27,0,0,0,8.62,6.57A18.23,18.23,0,0,1,2.2,33.38,18.48,18.48,0,0,1,0,33.25,25.7,25.7,0,0,0,14.15,37.5c17,0,26.27-14.42,26.27-26.93,0-.41,0-.82,0-1.23A19,19,0,0,0,45,4.44a18,18,0,0,1-5.3,1.49A9.45,9.45,0,0,0,43.76.69Z"/></g></g></svg>