<svg xmlns="http://www.w3.org/2000/svg" viewBox="0 0 26.97 22.47"><defs><style>.cls-1{fill:#fff;}</style></defs><title>Ресурс 12</title><g id="Слой_2" data-name="Слой 2"><g id="Footer"><path id="Twitter" class="cls-1" d="M26.22.42a10.9,10.9,0,0,1-3.52,1.37,5.46,5.46,0,0,0-4-1.79,5.6,5.6,0,0,0-5.53,5.67A5.79,5.79,0,0,0,13.28,7,15.58,15.58,0,0,1,1.88,1a5.78,5.78,0,0,0-.75,2.86A5.71,5.71,0,0,0,3.59,8.61a5.43,5.43,0,0,1-2.51-.71V8a5.64,5.64,0,0,0,4.44,5.56,5.28,5.28,0,0,1-1.46.2,5.38,5.38,0,0,1-1-.1,5.55,5.55,0,0,0,5.17,3.94A10.92,10.92,0,0,1,1.32,20,11.07,11.07,0,0,1,0,19.93a15.4,15.4,0,0,0,8.48,2.55c10.18,0,15.74-8.64,15.74-16.14,0-.25,0-.49,0-.74A11.36,11.36,0,0,0,27,2.66a10.81,10.81,0,0,1-3.18.89A5.66,5.66,0,0,0,26.22.42Z"/></g></g></svg>