<svg xmlns="http://www.w3.org/2000/svg" viewBox="0 0 45 31.88"><defs><style>.cls-1{fill:#ac1b21;}</style></defs><title>Ресурс 5</title><g id="Слой_2" data-name="Слой 2"><g id="Our_Network" data-name="Our Network"><g id="Youtube"><path class="cls-1" d="M42.76,2.38A6.4,6.4,0,0,0,38.25.46C32,0,22.51,0,22.51,0h0S13,0,6.75.46A6.41,6.41,0,0,0,2.24,2.38C.89,3.75.45,6.88.45,6.88A69,69,0,0,0,0,14.21v3.44A69,69,0,0,0,.45,25s.44,3.12,1.79,4.5c1.71,1.81,4,1.75,5,1.94,3.6.35,15.3.46,15.3.46s9.46,0,15.75-.47a6.41,6.41,0,0,0,4.51-1.92c1.35-1.38,1.79-4.5,1.79-4.5A69,69,0,0,0,45,17.65V14.21a69,69,0,0,0-.45-7.33S44.11,3.75,42.76,2.38ZM17.85,21.82V9.08L30,15.47Z"/></g></g></g></svg>