<svg xmlns="http://www.w3.org/2000/svg" viewBox="0 0 36.62 36.62"><defs><style>.cls-1{fill:#a52425;}</style></defs><title>facebook_form_color</title><g id="Слой_2" data-name="Слой 2"><g id="Ebene_1" data-name="Ebene 1"><path id="Facebook" class="cls-1" d="M36.62,34.6a2,2,0,0,1-2,2H25.27V22.44H30l.71-5.53H25.27V13.38c0-1.6.44-2.69,2.74-2.69h2.93V5.75a39.11,39.11,0,0,0-4.26-.22c-4.22,0-7.11,2.58-7.11,7.31v4.08H14.79v5.53h4.77V36.62H2a2,2,0,0,1-2-2V2A2,2,0,0,1,2,0H34.6a2,2,0,0,1,2,2Z"/></g></g></svg>