<svg xmlns="http://www.w3.org/2000/svg" viewBox="0 0 36.62 36.62"><defs><style>.cls-1{fill:#a52425;}</style></defs><title>instagram_form_color</title><g id="Слой_2" data-name="Слой 2"><g id="Ebene_1" data-name="Ebene 1"><path id="Instagram" class="cls-1" d="M32.27,0H4.35A4.35,4.35,0,0,0,0,4.34V32.28a4.35,4.35,0,0,0,4.35,4.34H32.27a4.35,4.35,0,0,0,4.35-4.34V4.34A4.35,4.35,0,0,0,32.27,0ZM26.32,5.72a1.14,1.14,0,0,1,1.14-1.14H30.9A1.14,1.14,0,0,1,32,5.72V9.15A1.14,1.14,0,0,1,30.9,10.3H27.46a1.14,1.14,0,0,1-1.14-1.14Zm-8,5.61a7,7,0,1,1-7,7A7,7,0,0,1,18.35,11.33ZM33.19,32A1.14,1.14,0,0,1,32,33.19H4.58A1.14,1.14,0,0,1,3.43,32V14.88H8a7,7,0,0,0-.8,3.48,11.14,11.14,0,0,0,22.28,0,5.86,5.86,0,0,0-.88-3.48h4.58Z"/></g></g></svg>