<svg xmlns="http://www.w3.org/2000/svg" viewBox="0 0 36.62 34.33"><defs><style>.cls-1{fill:#a52425;}</style></defs><title>snapchat_form_color</title><g id="Слой_2" data-name="Слой 2"><g id="Ebene_1" data-name="Ebene 1"><path id="Snapchat" class="cls-1" d="M35.9,25.63c-4.9-.8-7.1-5.82-7.19-6l0,0a1.51,1.51,0,0,1-.17-1.24c.27-.63,1.29-1,2-1.17L31,17a4.12,4.12,0,0,0,1.46-.87,1.38,1.38,0,0,0,.44-1,1.57,1.57,0,0,0-1.18-1.36,2.11,2.11,0,0,0-.8-.15,1.79,1.79,0,0,0-.74.15,4.18,4.18,0,0,1-1.53.43,1.38,1.38,0,0,1-.5-.11c0-.23,0-.46,0-.71v-.1c.16-2.48.35-5.56-.47-7.39a10,10,0,0,0-2.24-3.21A9.35,9.35,0,0,0,22.85.88,10.69,10.69,0,0,0,18.66,0h-.72a10.63,10.63,0,0,0-4.19.88,9.33,9.33,0,0,0-2.67,1.77,10,10,0,0,0-2.23,3.2c-.82,1.83-.62,4.91-.47,7.39h0c0,.27,0,.54.05.81a1.44,1.44,0,0,1-.6.11,4,4,0,0,1-1.63-.44,1.46,1.46,0,0,0-.62-.13,2.21,2.21,0,0,0-1.1.31,1.51,1.51,0,0,0-.77,1,1.36,1.36,0,0,0,.52,1.28A4.47,4.47,0,0,0,5.6,17l.54.18c.68.21,1.7.54,2,1.17a1.51,1.51,0,0,1-.17,1.24l0,0a12,12,0,0,1-1.84,2.85,10.36,10.36,0,0,1-2.23,2A8.2,8.2,0,0,1,.72,25.64a.86.86,0,0,0-.72.89,1.13,1.13,0,0,0,.09.37h0A2.29,2.29,0,0,0,1.33,28a14.2,14.2,0,0,0,3.58.93,4.38,4.38,0,0,1,.22.79c.06.28.12.56.21.86a.94.94,0,0,0,1,.71,4.74,4.74,0,0,0,.84-.12,9.52,9.52,0,0,1,1.92-.22,8.44,8.44,0,0,1,1.37.12A6.53,6.53,0,0,1,13,32.36a8.32,8.32,0,0,0,5.06,2h.45a8.31,8.31,0,0,0,5.06-2h0A6.54,6.54,0,0,1,26.16,31a8.45,8.45,0,0,1,1.37-.12,9.62,9.62,0,0,1,1.92.2,4.57,4.57,0,0,0,.84.1h0a.93.93,0,0,0,.94-.7c.09-.29.15-.57.21-.85a4.46,4.46,0,0,1,.22-.78A14.22,14.22,0,0,0,35.29,28a2.3,2.3,0,0,0,1.24-1.06,1.09,1.09,0,0,0,.09-.38A.86.86,0,0,0,35.9,25.63Z"/></g></g></svg>