<svg xmlns="http://www.w3.org/2000/svg" viewBox="0 0 36.62 30.52"><defs><style>.cls-1{fill:#a52425;}</style></defs><title>twitter_form_color</title><g id="Слой_2" data-name="Слой 2"><g id="Ebene_1" data-name="Ebene 1"><path id="Twitter" class="cls-1" d="M35.61.56a14.8,14.8,0,0,1-4.77,1.87A7.41,7.41,0,0,0,25.35,0a7.61,7.61,0,0,0-7.51,7.7A7.86,7.86,0,0,0,18,9.46,21.15,21.15,0,0,1,2.55,1.41a7.84,7.84,0,0,0-1,3.88A7.75,7.75,0,0,0,4.87,11.7a7.38,7.38,0,0,1-3.4-1v.09a7.66,7.66,0,0,0,6,7.55,7.16,7.16,0,0,1-2,.27,7.3,7.3,0,0,1-1.41-.14,7.54,7.54,0,0,0,7,5.35,14.83,14.83,0,0,1-9.33,3.3A15,15,0,0,1,0,27.06a20.92,20.92,0,0,0,11.52,3.46c13.82,0,21.38-11.74,21.38-21.92,0-.34,0-.67,0-1a15.42,15.42,0,0,0,3.75-4,14.68,14.68,0,0,1-4.31,1.21A7.69,7.69,0,0,0,35.61.56Z"/></g></g></svg>