<svg xmlns="http://www.w3.org/2000/svg" viewBox="0 0 30.52 35.09"><defs><style>.cls-1{fill:#a52425;}</style></defs><title>vine_form_color</title><g id="Слой_2" data-name="Слой 2"><g id="Ebene_1" data-name="Ebene 1"><path class="cls-1" d="M29.3,14.54a15.61,15.61,0,0,0,1.21-6c0-5.38-2.72-8.5-7.7-8.5s-8.12,4-8.12,9.21,2.41,9.64,6.37,11.67a33.39,33.39,0,0,1-6,8.56C11,24.54,7.41,18,5.92,5.27H0c2.74,21.22,10.89,28,13,29.27a3,3,0,0,0,3.39.07c1.75-1,7-6.3,9.92-12.51a19.37,19.37,0,0,0,4.16-.48V17.45a11.34,11.34,0,0,1-2.54.3c-4.39,0-7.77-3.09-7.77-8.47,0-2.64,1-4,2.44-4S24.9,6.5,24.9,9a14.54,14.54,0,0,1-.65,3.89S25.6,15.27,29.3,14.54Z"/></g></g></svg>